<svg width="1600" height="1000" viewBox="0 0 1600 1000" fill="none" xmlns="http://www.w3.org/2000/svg">
  <rect width="1600" height="1000" fill="#090909"/>
  <rect width="1600" height="1000" fill="url(#bg)"/>
  <ellipse cx="305" cy="170" rx="280" ry="180" fill="url(#warmGlow)" opacity="0.85"/>
  <ellipse cx="1288" cy="174" rx="220" ry="140" fill="url(#emberGlow)" opacity="0.7"/>
  <path d="M0 214C183 166 328 152 503 154C759 158 950 222 1123 230C1294 238 1458 210 1600 156V0H0V214Z" fill="url(#topShade)" opacity="0.68"/>
  <path d="M0 500C176 438 336 412 544 424C796 438 944 520 1188 520C1333 520 1454 488 1600 430V1000H0V500Z" fill="#0B0B0B"/>
  <path d="M180 916C204 804 260 704 330 704C402 704 460 810 484 916H180Z" fill="#23110D"/>
  <path d="M478 916C510 768 590 640 690 640C790 640 874 768 908 916H478Z" fill="#2D1710"/>
  <path d="M860 916C888 790 956 688 1040 688C1122 688 1188 790 1218 916H860Z" fill="#1E1011"/>
  <path d="M1168 916C1190 818 1236 738 1298 738C1360 738 1408 818 1430 916H1168Z" fill="#2B1410"/>
  <rect x="0" y="916" width="1600" height="84" fill="#120F0D"/>
  <path d="M0 670L1600 604V1000H0V670Z" fill="url(#floor)"/>
  <path d="M154 0H292V1000H154V0Z" fill="url(#curtainLeft)" opacity="0.7"/>
  <path d="M1308 0H1446V1000H1308V0Z" fill="url(#curtainRight)" opacity="0.72"/>
  <path d="M280 0H392V1000H280V0Z" fill="url(#curtainInnerLeft)" opacity="0.42"/>
  <path d="M1208 0H1320V1000H1208V0Z" fill="url(#curtainInnerRight)" opacity="0.42"/>
  <path d="M534 192C614 192 682 228 742 286L600 616C502 528 430 428 418 310C440 246 476 192 534 192Z" fill="url(#beamOne)" opacity="0.64"/>
  <path d="M1010 214C1090 214 1160 252 1214 320L1020 636C930 552 864 458 852 364C876 282 926 214 1010 214Z" fill="url(#beamTwo)" opacity="0.52"/>
  <circle cx="542" cy="222" r="26" fill="#FFE2B8"/>
  <circle cx="1024" cy="244" r="24" fill="#FFD19D"/>
  <defs>
    <linearGradient id="bg" x1="800" y1="0" x2="800" y2="1000" gradientUnits="userSpaceOnUse">
      <stop stop-color="#1A0E0E"/>
      <stop offset="0.42" stop-color="#100E0D"/>
      <stop offset="1" stop-color="#090909"/>
    </linearGradient>
    <radialGradient id="warmGlow" cx="0" cy="0" r="1" gradientUnits="userSpaceOnUse" gradientTransform="translate(305 170) rotate(90) scale(180 280)">
      <stop stop-color="#FFB56A"/>
      <stop offset="1" stop-color="#FFB56A" stop-opacity="0"/>
    </radialGradient>
    <radialGradient id="emberGlow" cx="0" cy="0" r="1" gradientUnits="userSpaceOnUse" gradientTransform="translate(1288 174) rotate(90) scale(140 220)">
      <stop stop-color="#B82C2C"/>
      <stop offset="1" stop-color="#B82C2C" stop-opacity="0"/>
    </radialGradient>
    <linearGradient id="topShade" x1="800" y1="0" x2="800" y2="230" gradientUnits="userSpaceOnUse">
      <stop stop-color="#160D0D"/>
      <stop offset="1" stop-color="#160D0D" stop-opacity="0"/>
    </linearGradient>
    <linearGradient id="floor" x1="800" y1="604" x2="800" y2="1000" gradientUnits="userSpaceOnUse">
      <stop stop-color="#1B1412"/>
      <stop offset="1" stop-color="#0E0D0C"/>
    </linearGradient>
    <linearGradient id="curtainLeft" x1="223" y1="0" x2="223" y2="1000" gradientUnits="userSpaceOnUse">
      <stop stop-color="#56161A"/>
      <stop offset="1" stop-color="#180C0D"/>
    </linearGradient>
    <linearGradient id="curtainRight" x1="1377" y1="0" x2="1377" y2="1000" gradientUnits="userSpaceOnUse">
      <stop stop-color="#5E1A1E"/>
      <stop offset="1" stop-color="#180C0D"/>
    </linearGradient>
    <linearGradient id="curtainInnerLeft" x1="336" y1="0" x2="336" y2="1000" gradientUnits="userSpaceOnUse">
      <stop stop-color="#7F2023"/>
      <stop offset="1" stop-color="#1C0F10"/>
    </linearGradient>
    <linearGradient id="curtainInnerRight" x1="1264" y1="0" x2="1264" y2="1000" gradientUnits="userSpaceOnUse">
      <stop stop-color="#7F2023"/>
      <stop offset="1" stop-color="#1C0F10"/>
    </linearGradient>
    <linearGradient id="beamOne" x1="580" y1="192" x2="580" y2="616" gradientUnits="userSpaceOnUse">
      <stop stop-color="#F6B16A"/>
      <stop offset="1" stop-color="#F6B16A" stop-opacity="0"/>
    </linearGradient>
    <linearGradient id="beamTwo" x1="1033" y1="214" x2="1033" y2="636" gradientUnits="userSpaceOnUse">
      <stop stop-color="#E56C3E"/>
      <stop offset="1" stop-color="#E56C3E" stop-opacity="0"/>
    </linearGradient>
  </defs>
</svg>
